<?xml version="1.0" encoding="utf-8"?>
<!-- Generator: Adobe Illustrator 17.1.0, SVG Export Plug-In . SVG Version: 6.00 Build 0)  -->
<!DOCTYPE svg PUBLIC "-//W3C//DTD SVG 1.1//EN" "http://www.w3.org/Graphics/SVG/1.1/DTD/svg11.dtd">
<svg version="1.1" id="svg" xmlns="http://www.w3.org/2000/svg" xmlns:xlink="http://www.w3.org/1999/xlink" x="0px" y="0px"
	 viewBox="0 166 640 155" enable-background="new 0 166 640 155" xml:space="preserve">
<g>
	<g>
		<path fill="#982D91" d="M71.6,293.9h17L80,270.4L71.6,293.9z M67.8,304.7l-2.2,6.2l0,0c0.5,0,1.1,0.3,1.9,0.3l0,0
			c0.5,0,1.1,0.3,1.6,0.3l0,0c0.5,0,1.1,0.3,1.6,0.3h0.3c0.5,0,1.1,0,1.6,0.3h0.3c0.5,0,1.1,0,1.4,0.3c0.3,0,0.3,0,0.5,0
			c0.5,0,0.8,0,1.4,0c0.3,0,0.3,0,0.5,0c0.5,0,0.8,0,1.4,0c0.3,0,0.3,0,0.5,0c0.5,0,1.4,0,1.9,0l0,0l0,0c0.5,0,1.1,0,1.9,0
			c0.3,0,0.3,0,0.5,0c0.5,0,1.1,0,1.4,0h0.3c0.5,0,1.1,0,1.6,0h0.3c0.5,0,1.1,0,1.6-0.3c0,0,0,0,0.3,0c0.5,0,1.1,0,1.6-0.3l0,0
			c0.5,0,1.1-0.3,1.6-0.3l0,0c1.1-0.3,2.4-0.5,3.5-0.5l0,0l-2.4-6.2L67.8,304.7L67.8,304.7z M98.1,173.7c-5.7-1.4-11.3-2.2-17.6-2.2
			c-38.6,0-70,31.6-70,70.5c0,0.8,0,1.6,0,2.4c0,0.3,0,0.3,0,0.5c0.3,0.8,0.3,1.6,0.3,2.4l0,0c0,0.8,0.3,1.6,0.3,2.4
			c0,0.3,0,0.3,0,0.5c0,0.8,0.3,1.6,0.3,2.4l0,0c0,0.8,0.3,1.6,0.3,2.2c0,0.3,0,0.3,0,0.5c0.3,0.8,0.3,1.6,0.5,2.4l0,0
			c0.3,0.8,0.3,1.4,0.5,2.2c0,0.3,0,0.3,0.3,0.5c0.3,0.8,0.5,1.6,0.5,2.2l0,0c0.3,0.8,0.5,1.4,0.8,2.2c0,0.3,0,0.3,0.3,0.5
			c0.3,0.8,0.5,1.4,0.8,2.2l0,0c0.5,1.1,0.8,1.6,1.1,2.4c0,0.3,0,0.3,0.3,0.5c0.3,0.8,0.5,1.4,1.1,2.2l0,0c0.3,0.5,0.5,1.4,1.1,1.9
			c0,0,0,0.3,0.3,0.3c0.3,0.8,0.8,1.4,1.1,2.2l0,0c0.3,0.5,0.8,1.4,1.1,1.9c0,0,0,0.3,0.3,0.3c0.5,0.5,0.8,1.4,1.4,1.9l0,0
			c0.5,0.5,0.8,1.4,1.4,1.9c-0.3,0.5,0,0.5,0,0.5c0.5,0.5,1.1,1.4,1.4,1.9l0,0c0.5,0.5,1.1,1.4,1.6,1.9c0,0,0,0,0.3,0.3
			c0.5,0.5,1.1,1.4,1.6,1.9l0,0c0.5,0.5,1.1,1.1,1.6,1.9l0,0c1.1,1.1,2.4,2.4,3.5,3.5l0,0c1.4,1.1,2.4,2.2,3.8,3.2l0,0
			c1.4,1.1,2.7,1.9,4.1,3l0,0c3.5,2.4,7.3,4.3,11.3,5.9l0,0l19.7-51.1h13.2l20.3,51.3l0,0c7-3,13.8-7,19.5-12.2l0,0
			c0.5-0.5,1.4-1.1,1.9-1.6l0,0c0.5-0.5,1.1-1.1,1.9-1.6l0,0c0.5-0.5,1.1-1.1,1.6-1.9l0,0c0.5-0.5,1.1-1.4,1.6-1.9c0,0,0,0,0-0.3
			c0.5-0.5,1.1-1.4,1.6-1.9l0,0c0.5-0.5,1.1-1.4,1.4-1.9c0,0,0-0.3,0.3-0.3c0.5-0.5,0.8-1.4,1.4-1.9l0,0c0.5-0.5,0.8-1.4,1.4-1.9
			c0,0,0-0.3,0.3-0.3c0.3-0.5,0.8-1.4,1.1-1.9l0,0c0.3-0.8,0.8-1.4,1.1-2.2c0,0,0-0.3,0.3-0.3c0.3-0.5,0.8-1.4,1.1-1.9
			c0,0,0,0,0-0.3c0.3-0.8,0.5-1.4,1.1-2.2c0,0,0-0.3,0.3-0.5c0.3-0.5,0.5-1.4,0.8-2.2c0,0,0,0,0-0.3c0.3-0.8,0.5-1.4,0.8-2.2
			c0-0.3,0-0.3,0.3-0.5c0.3-0.8,0.5-1.4,0.8-2.2c0,0,0,0,0-0.3c0.3-0.8,0.5-1.6,0.5-2.2c0-0.3,0-0.3,0.3-0.5
			c0.3-0.8,0.3-1.4,0.5-2.2c0,0,0,0,0-0.3c0.3-0.8,0.3-1.6,0.5-2.4c0-0.3,0-0.3,0-0.5c0.3-0.8,0.3-1.4,0.3-2.2l0,0
			c0-0.8,0.3-1.6,0.3-2.4c0-0.3,0-0.3,0-0.5c0-0.8,0.3-1.6,0.3-2.4l0,0c0-0.8,0-1.6,0.3-2.4c0-0.3,0-0.3,0-0.5c0-0.8,0-1.6,0-2.4
			l0,0C150.5,209.1,128.3,181.5,98.1,173.7z M240.4,171.8c-38.6,0-70,31.6-70,70.5l0,0c0,0.5,0,1.1,0,1.6c0,0.3,0,0.3,0,0.5
			s0,0.8,0,1.1s0,0.5,0,0.8s0,0.8,0,1.1s0,0.5,0,0.8c0,0.3,0,0.5,0,1.1c0,0.3,0,0.5,0,0.8s0,0.5,0,1.1c0,0.3,0,0.5,0,0.8
			c0,0.3,0,0.5,0,0.8c0,0.3,0,0.5,0,0.8c0,0.3,0,0.5,0.3,0.8c0,0.3,0,0.5,0.3,0.8c0,0.3,0,0.5,0.3,0.8c0,0.3,0,0.5,0.3,0.8
			c0,0.3,0,0.5,0.3,0.8c0,0.3,0,0.5,0.3,0.8c0,0.3,0.3,0.5,0.3,0.8c0,0.3,0,0.5,0.3,0.8c0,0.3,0.3,0.5,0.3,0.8
			c0,0.3,0.3,0.5,0.3,0.8c0,0.3,0.3,0.5,0.3,0.8s0.3,0.5,0.3,0.8c0,0.3,0.3,0.5,0.3,0.8s0.3,0.5,0.3,0.8c0,0.3,0.3,0.5,0.3,0.8
			c0,0.3,0.3,0.5,0.3,0.8s0.3,0.5,0.3,0.8c0,0.3,0.3,0.5,0.3,0.8c0,0.3,0.3,0.5,0.3,0.8s0.3,0.5,0.3,0.8c0,0.3,0.3,0.3,0.3,0.5
			c0.3,0.8,0.5,1.4,0.8,1.9c0,0,0,0.3,0.3,0.3c0.3,0.3,0.3,0.5,0.5,0.8c0,0.3,0.3,0.3,0.3,0.5c0.3,0.3,0.3,0.5,0.5,0.8
			c0,0.3,0.3,0.3,0.3,0.5c0.3,0.3,0.3,0.5,0.5,0.8c0,0.3,0.3,0.3,0.3,0.5c0.3,0.3,0.3,0.5,0.5,0.8c0,0.3,0.3,0.3,0.3,0.5
			c0.3,0.3,0.3,0.5,0.5,0.8c0,0.3,0.3,0.3,0.3,0.5c0.3,0.3,0.3,0.5,0.5,0.8c0,0.3,0.3,0.3,0.3,0.5c0.3,0.3,0.3,0.5,0.5,0.8
			c0,0.3,0.3,0.3,0.3,0.5c0.3,0.3,0.3,0.5,0.5,0.8c0,0.3,0.3,0.3,0.3,0.5c0.3,0.3,0.5,0.5,0.5,0.8c0,0.3,0.3,0.3,0.3,0.5
			c0.3,0.3,0.5,0.5,0.5,0.8s0.3,0.3,0.3,0.5c0.3,0.3,0.5,0.5,0.8,0.8l0.3,0.3c0.3,0.3,0.5,0.5,0.8,0.8l0.3,0.3
			c0.3,0.3,0.5,0.5,0.8,0.8c0,0,0,0.3,0.3,0.3c0.3,0.3,0.5,0.5,0.8,1.1l0,0c3,3,6.2,5.9,9.5,8.4l0,0c0.5,0.3,0.8,0.5,1.4,0.8l0,0
			c0.5,0.3,0.8,0.5,1.4,0.8l0,0c0.5,0.3,0.8,0.5,1.4,0.8l0,0c0.5,0.3,0.8,0.5,1.4,0.8l0,0c0.5,0.3,0.8,0.5,1.4,0.8l0,0
			c0.5,0.3,0.8,0.5,1.4,0.8l0,0c8.1,4.3,17,7,26.5,7.8l0,0v-20l-23-36.5h14.9l14.9,24.9l14.3-24.9h14.6l-23,36.5v20l0,0
			c8.9-0.8,17.3-3.2,25.1-7l0,0c0.5-0.3,0.8-0.5,1.4-0.8l0,0c0.5-0.3,0.8-0.5,1.4-0.8l0,0c0.5-0.3,0.8-0.5,1.4-0.8l0,0
			c0.5-0.3,0.8-0.5,1.4-0.8l0,0c0.5-0.3,0.8-0.5,1.4-0.8l0,0c0.5-0.3,0.8-0.5,1.4-0.8l0,0c3.8-2.7,7.6-5.7,10.8-9.2l0,0
			c0.3-0.3,0.5-0.5,0.8-1.1l0.3-0.3c0.3-0.3,0.5-0.5,0.8-0.8l0.3-0.3c0.3-0.3,0.5-0.5,0.8-0.8l0.3-0.3c0.3-0.3,0.5-0.5,0.8-0.8
			c0-0.3,0.3-0.3,0.3-0.5c0.3-0.3,0.5-0.5,0.5-0.8c0-0.3,0.3-0.3,0.3-0.5c0.3-0.3,0.5-0.5,0.5-0.8c0-0.3,0.3-0.3,0.3-0.5
			c0.3-0.3,0.3-0.5,0.5-0.8c0-0.3,0.3-0.3,0.3-0.5c0.3-0.3,0.3-0.5,0.5-0.8c0-0.3,0.3-0.3,0.3-0.5c0.3-0.3,0.3-0.5,0.5-0.8
			c0-0.3,0.3-0.3,0.3-0.5c0.3-0.3,0.3-0.5,0.5-0.8c0-0.3,0.3-0.3,0.3-0.5c0.3-0.3,0.3-0.5,0.5-0.8c0-0.3,0.3-0.3,0.3-0.5
			c0.3-0.3,0.3-0.5,0.5-0.8c0-0.3,0.3-0.3,0.3-0.5c0.3-0.3,0.3-0.5,0.5-0.8c0-0.3,0.3-0.3,0.3-0.5c0.5-1.1,1.1-2.2,1.6-3.2
			c0-0.3,0.3-0.5,0.3-0.5c0-0.3,0.3-0.5,0.3-0.8c0-0.3,0.3-0.5,0.3-0.8s0.3-0.5,0.3-0.8c0-0.3,0.3-0.5,0.3-0.8
			c0-0.3,0.3-0.5,0.3-0.8s0.3-0.5,0.3-0.8c0-0.3,0.3-0.5,0.3-0.8c0-0.3,0.3-0.5,0.3-0.8c0-0.3,0.3-0.5,0.3-0.8
			c0-0.3,0.3-0.5,0.3-0.8s0.3-0.5,0.3-0.8c0-0.3,0.3-0.5,0.3-0.8c0-0.3,0-0.5,0.3-0.8c0-0.3,0.3-0.5,0.3-0.8c0-0.3,0-0.5,0.3-0.8
			c0-0.3,0-0.5,0.3-0.8c0-0.3,0-0.5,0.3-0.8c0-0.3,0-0.5,0.3-0.8c0-0.3,0-0.5,0.3-0.8c0-0.3,0-0.5,0.3-0.8c0-0.3,0-0.5,0-0.8
			s0-0.5,0-0.8c0-0.3,0-0.5,0-0.8c0-0.3,0-0.5,0-1.1c0-0.3,0-0.5,0-0.8s0-0.5,0-1.1c0-0.3,0-0.5,0-0.8c0-0.3,0-0.8,0-1.1
			s0-0.5,0-0.8s0-0.8,0-1.1s0-0.3,0-0.5c0-0.5,0-1.1,0-1.9c0-15.1-4.9-29.2-13-40.8C284.7,183.4,263.9,171.8,240.4,171.8z
			 M398.5,171.5c-33.2,0-61.1,23.2-68.1,54.6c-1.1,5.1-1.9,10.5-1.9,15.9l0,0c0,0.8,0,1.6,0,2.4c0,0.3,0,0.3,0,0.5
			c0,0.8,0,1.6,0.3,2.4v0.3c0,0.8,0.3,1.4,0.3,2.2c0,0.3,0,0.3,0,0.5c0,0.8,0.3,1.6,0.3,2.4c0,0.3,0,0.3,0,0.5
			c0,0.8,0.3,1.4,0.3,2.2v0.3c0.3,0.8,0.3,1.6,0.5,2.4c0,0.3,0,0.3,0,0.5c0.3,0.8,0.3,1.6,0.5,2.4l0,0c0.3,0.8,0.5,1.6,0.8,2.4
			c0,0.3,0,0.3,0.3,0.5c0.3,0.8,0.5,1.6,0.8,2.2v0.3c0.3,0.8,0.5,1.4,0.8,2.2c0,0.3,0,0.3,0.3,0.5c0.3,0.8,0.5,1.4,1.1,2.2
			c0,0,0,0.3,0.3,0.3c0.3,0.5,0.5,1.4,1.1,1.9c0,0,0,0.3,0.3,0.3c0.3,0.8,0.8,1.4,1.1,2.2l0.3,0.3c0.3,0.8,0.8,1.4,1.1,2.2l0,0
			c0.5,0.8,0.8,1.4,1.4,2.2l0.3,0.3c0.5,0.8,0.8,1.4,1.4,1.9l0,0c0.5,0.5,0.8,1.4,1.4,1.9l0.3,0.3c0.5,0.5,1.1,1.4,1.6,1.9
			c0,0,0,0,0.3,0.3c0.5,0.5,1.1,1.1,1.6,1.9c0,0,0,0,0.3,0.3c0.5,0.5,1.1,1.1,1.6,1.9l0.3,0.3c1.1,1.1,2.4,2.4,3.5,3.5l0.3,0.3
			c1.4,1.1,2.4,2.2,3.8,3.2c0,0,0.3,0,0.3,0.3c0.5,0.5,1.4,1.1,1.9,1.6l0,0c0.8,0.5,1.4,0.8,2.2,1.4l0,0c0.8,0.5,1.4,0.8,2.2,1.4
			c0,0,0,0,0.3,0c1.4,0.8,3,1.6,4.3,2.4h0.3c1.6,0.8,3,1.4,4.6,2.2h0.3c0.8,0.3,1.6,0.5,2.4,0.8l0,0v-52.7h46.5v10.5h-33.8v14h30.8
			v10.5h-31.3v17.3h34.9l0,0c2.4-0.8,4.9-1.9,7.3-3.2l0,0c1.6-0.8,3-1.6,4.6-2.4l0,0c1.6-0.8,3-1.9,4.3-3l0,0
			c0.8-0.5,1.4-1.1,2.2-1.6l0,0c1.4-1.1,2.7-2.2,4.1-3.2l0,0c1.4-1.1,2.4-2.4,3.8-3.5c0,0,0,0,0.3-0.3c1.1-1.1,2.4-2.4,3.5-3.8
			c0,0,0,0,0-0.3c0.5-0.5,1.1-1.4,1.6-1.9c0,0,0,0,0-0.3c0.5-0.5,1.1-1.4,1.4-1.9l0,0c0.5-0.5,0.8-1.4,1.4-2.2c0,0,0-0.3,0.3-0.3
			c0.8-1.4,1.6-2.7,2.4-4.3c0,0,0-0.3,0.3-0.3c0.3-0.8,0.8-1.4,1.1-2.2c0,0,0,0,0-0.3c0.3-0.8,0.8-1.4,1.1-2.2c0,0,0-0.3,0.3-0.3
			c0.3-0.8,0.5-1.4,1.1-2.2c0,0,0-0.3,0.3-0.3c0.3-0.8,0.5-1.4,0.8-2.2v-0.3c0.3-0.8,0.5-1.6,0.8-2.2c0-0.3,0-0.3,0.3-0.5
			c0.5-1.6,0.8-3.2,1.4-4.6c0-0.3,0-0.3,0-0.5c0.3-0.8,0.3-1.6,0.5-2.4v-0.3c0.3-0.8,0.3-1.4,0.3-2.2c0-0.3,0-0.3,0-0.5
			c0-0.8,0.3-1.6,0.3-2.4c0-0.3,0-0.3,0-0.5c0-0.8,0.3-1.4,0.3-2.2v-0.3c0-0.8,0-1.6,0.3-2.4c0-0.3,0-0.3,0-0.5c0-0.8,0-1.6,0-2.4
			C468.5,203.1,437.1,171.5,398.5,171.5z M584.3,176.1c-7.6-2.7-15.7-4.3-24-4.3c-38.6,0-70,31.6-70,70.5c0,0.8,0,1.6,0,2.7
			c0,0.3,0,0.3,0,0.5c0,0.8,0,1.6,0.3,2.4c0,0.3,0,0.3,0,0.5c0,0.8,0.3,1.6,0.3,2.4v0.3c0,0.8,0.3,1.6,0.3,2.4c0,0.3,0,0.3,0,0.5
			c0.3,0.8,0.3,1.6,0.5,2.4l0,0c0.3,0.8,0.3,1.6,0.5,2.4c0,0.3,0,0.3,0,0.5c0.3,0.8,0.5,1.6,0.5,2.4v0.3c0.3,0.8,0.5,1.6,0.8,2.2
			v0.3c0.3,0.8,0.5,1.6,0.8,2.4c0,0.3,0,0.3,0.3,0.5c0.3,0.8,0.5,1.6,0.8,2.4l0,0c0.3,0.8,0.5,1.6,1.1,2.2c0,0,0,0.3,0.3,0.3
			c0.3,0.8,0.8,1.6,1.1,2.2c0,0,0,0.3,0.3,0.3c0.3,0.8,0.8,1.6,1.1,2.2l0,0c0.5,0.8,0.8,1.4,1.4,2.2c0,0,0,0.3,0.3,0.3
			c0.5,0.8,0.8,1.4,1.4,2.2l0,0c0.5,0.8,1.1,1.4,1.6,2.2c0,0,0,0,0,0.3c0.5,0.8,1.1,1.4,1.6,2.2c0,0,0,0,0,0.3
			c1.1,1.4,2.2,2.7,3.5,4.1c0,0,0,0,0,0.3c1.9,1.9,3.8,3.8,5.7,5.7l0,0c1.4,1.1,2.7,2.2,4.3,3.2l0,0c2.2,1.6,4.6,3,6.8,4.3l0,0
			c4.1,2.2,8.1,4.1,12.4,5.4l0,0c-1.6-1.9-3-3.8-4.1-6.2c-2.4-5.1-3.8-10.8-3.8-16.7c0-6.5,1.4-12.4,4.1-17.6
			c2.7-5.1,6.8-8.9,11.9-11.6c4.1-2.2,8.9-3.2,14.9-3.2c7.8,0,13.8,1.6,18.1,4.9s7.3,7.8,8.4,13.5l-12.4,2.4c-0.8-3-2.4-5.7-4.9-7.3
			c-2.4-1.9-5.4-2.7-9.2-2.7c-5.4,0-10,1.9-13.2,5.4c-3.2,3.5-4.9,8.6-4.9,15.7c0,7.6,1.6,13,4.9,16.7c3.2,3.8,7.6,5.7,13,5.7
			c2.7,0,5.4-0.5,7.8-1.6c2.7-1.1,4.9-2.4,6.8-3.8V295h-14.6v-10.5h27.3v21.9l0,0c2.2-1.1,4.3-2.2,6.5-3.5l0,0
			c1.4-0.8,2.7-1.6,4.1-2.7l0,0c1.4-0.8,2.7-1.9,3.8-3l0,0c1.4-1.1,2.4-2.2,3.5-3.2l0,0c1.1-1.1,2.2-2.2,3.2-3.2c0,0,0,0,0-0.3
			c0.5-0.5,1.1-1.1,1.6-1.6l0,0c0.5-0.5,1.1-1.1,1.6-1.9c0,0,0,0,0-0.3c0.5-0.5,0.8-1.1,1.4-1.6c0,0,0,0,0-0.3
			c0.5-0.5,0.8-1.4,1.4-1.9l0,0c0.5-0.5,0.8-1.1,1.4-1.9c0,0,0-0.3,0.3-0.3c0.5-0.5,0.8-1.4,1.4-1.9l0,0c0.3-0.5,0.8-1.4,1.1-1.9
			c0,0,0-0.3,0.3-0.3c0.8-1.4,1.4-2.7,2.2-4.1c0-0.3,0-0.3,0.3-0.5c0.3-0.8,0.5-1.4,0.8-2.2l0,0c0.3-0.8,0.5-1.4,0.8-2.2
			c0-0.3,0-0.3,0.3-0.5c0.3-0.5,0.5-1.4,0.8-1.9V265c0.3-0.8,0.5-1.4,0.8-2.2c0-0.3,0-0.3,0.3-0.5c0.3-0.5,0.3-1.4,0.5-1.9
			c0-0.3,0-0.3,0-0.5c0.3-0.8,0.3-1.4,0.5-2.2c0-0.3,0-0.3,0-0.5c0-0.5,0.3-1.4,0.3-1.9c0-0.3,0-0.3,0-0.5c0.3-0.8,0.3-1.6,0.3-2.2
			c0,0,0-0.3,0-0.5c0-0.5,0.3-1.4,0.3-1.9c0-0.3,0-0.3,0-0.5c0-0.8,0.3-1.6,0.3-2.4v-0.3c0-0.8,0-1.4,0-2.2c0-0.3,0-0.5,0-0.5
			c0-0.8,0-1.6,0-2.4l0,0C630.3,211.8,611.1,185.8,584.3,176.1z M589.5,306.3c-3.2,1.6-6.8,3-10.5,3.8
			C582.7,309,586.2,307.7,589.5,306.3z"/>
	</g>
</g>
</svg>
